<svg width="14" height="15" viewBox="0 0 14 15" xmlns="http://www.w3.org/2000/svg" xmlns:xlink="http://www.w3.org/1999/xlink"><defs><path id="a" d="M0 .256h13.92v13.97H0"/></defs><g fill="none" fill-rule="evenodd"><g><mask id="b" fill="#fff"><use xlink:href="#a"/></mask><path d="M.043.875L0 7.202c0 .155.06.304.17.413l6.397 6.422c.252.252.66.252.91 0l6.254-6.275c.253-.253.253-.662 0-.915L7.334.427c-.11-.11-.258-.172-.412-.17L.617.3C.3.302.046.558.043.875" fill="#c91300" mask="url(#b)"/></g><path d="M3.617 5.417c-.837 0-1.516-.68-1.516-1.52s.68-1.523 1.517-1.523c.838 0 1.516.682 1.516 1.522s-.678 1.52-1.516 1.52z" fill="#FFF"/></g></svg>
